<svg xmlns="http://www.w3.org/2000/svg" xmlns:xlink="http://www.w3.org/1999/xlink" width="69" height="61.491" viewBox="0 0 69 61.491">
  <defs>
    <linearGradient id="linear-gradient" y1="0.5" x2="1" y2="0.5" gradientUnits="objectBoundingBox">
      <stop offset="0.025" stop-color="#075b6b"/>
      <stop offset="0.191" stop-color="#0f777b"/>
      <stop offset="0.39" stop-color="#17928b"/>
      <stop offset="0.505" stop-color="#1a9d92"/>
      <stop offset="0.638" stop-color="#16918b"/>
      <stop offset="0.873" stop-color="#0e7379"/>
      <stop offset="1" stop-color="#09606e"/>
    </linearGradient>
    <linearGradient id="linear-gradient-14" x1="-190.511" y1="4143.343" x2="-190.492" y2="4143.343" xlink:href="#linear-gradient"/>
    <linearGradient id="linear-gradient-15" x1="-9686.364" y1="7741.072" x2="-9685.293" y2="7741.072" xlink:href="#linear-gradient"/>
    <linearGradient id="linear-gradient-16" x1="-43185.469" y1="5299.764" x2="-43181.922" y2="5299.764" xlink:href="#linear-gradient"/>
    <linearGradient id="linear-gradient-17" x1="-25711.682" y1="10671.826" x2="-25710.609" y2="10671.826" xlink:href="#linear-gradient"/>
    <linearGradient id="linear-gradient-18" x1="-43183.227" y1="3933.42" x2="-43178.449" y2="3933.42" xlink:href="#linear-gradient"/>
    <linearGradient id="linear-gradient-19" x1="-7020.975" y1="7554.347" x2="-7022.046" y2="7554.347" xlink:href="#linear-gradient"/>
    <linearGradient id="linear-gradient-20" x1="-7021.268" y1="-4535.234" x2="-7022.339" y2="-4535.234" xlink:href="#linear-gradient"/>
    <linearGradient id="linear-gradient-21" x1="-8637.866" y1="2852.785" x2="-8636.548" y2="2852.785" xlink:href="#linear-gradient"/>
    <linearGradient id="linear-gradient-22" x1="-15800.083" y1="-789.385" x2="-15795.307" y2="-789.385" xlink:href="#linear-gradient"/>
    <linearGradient id="linear-gradient-23" x1="-3543.167" y1="-2197.907" x2="-3544.238" y2="-2197.907" xlink:href="#linear-gradient"/>
    <clipPath id="clip-path">
      <rect id="SVGID" width="3.489" height="5.981" transform="translate(0 3.256) rotate(-68.943)" fill="none"/>
    </clipPath>
    <linearGradient id="linear-gradient-24" x1="28.221" y1="-15.465" x2="30.205" y2="-15.465" xlink:href="#linear-gradient"/>
    <linearGradient id="linear-gradient-25" x1="84.025" y1="-15.478" x2="88.981" y2="-15.478" xlink:href="#linear-gradient"/>
    <linearGradient id="linear-gradient-26" x1="25.79" y1="-28.92" x2="26.793" y2="-28.92" xlink:href="#linear-gradient"/>
    <linearGradient id="linear-gradient-27" x1="-728.078" y1="334.975" x2="-727.127" y2="334.975" gradientUnits="objectBoundingBox">
      <stop offset="0" stop-color="#8c8c8c"/>
      <stop offset="1" stop-color="#fff"/>
    </linearGradient>
  </defs>
  <g id="Group_11250" data-name="Group 11250" transform="translate(-138 -10.213)">
    <g id="Group_5171" data-name="Group 5171" transform="translate(128.262 -13.889)">
      <g id="Group_1559" data-name="Group 1559" transform="translate(9.738 24.102)">
        <path id="Path_1450" data-name="Path 1450" d="M178.259,162.533h-4.217a18.64,18.64,0,0,1-17.793,17.792v4.646a23.139,23.139,0,0,0,2.491-.224l1.15,3.1,5.475-1.558-.66-3.289a22.7,22.7,0,0,0,4.742-2.859l2.6,2.22,4.026-4.022-2.285-2.676a22.972,22.972,0,0,0,2.7-4.714l3.511.7,1.555-5.473-3.458-1.288A22.933,22.933,0,0,0,178.259,162.533Z" transform="translate(-117.955 -126.35)" fill="url(#linear-gradient)"/>
        <path id="Path_1451" data-name="Path 1451" d="M28.578,162.52H24.1a23.437,23.437,0,0,0,.171,2.452l-3.207,1.192.569,2H17.848a1.7,1.7,0,1,0,0,.912h4.04l.728,2.561,3.269-.655a22.185,22.185,0,0,0,1.391,2.725h-14.2a1.7,1.7,0,1,0,0,.912H27.844q.4.607.843,1.194l-2.141,2.511,4.024,4.025,2.477-2.116a23.034,23.034,0,0,0,4.847,2.867l-.637,3.176,5.472,1.556,1.138-3.057a23.4,23.4,0,0,0,2.506.2v-4.657A18.642,18.642,0,0,1,28.578,162.52Z" transform="translate(-9.738 -126.341)" fill="url(#linear-gradient)"/>
        <g id="Group_1558" data-name="Group 1558" transform="translate(5.842 0)">
          <g id="Group_1524" data-name="Group 1524" transform="translate(0 10.075)">
            <g id="Group_1518" data-name="Group 1518" transform="translate(7.256 8.816)">
              <path id="Path_1452" data-name="Path 1452" d="M67.225,103.544l-7.376-3.681s.071-.523.156-1.054c.1-.527.208-1.054.208-1.054s.1-.094.259-.229l.59-.482c.419-.353.866-.669.866-.669l6.748,4.736-.071.1c-.043.064-.115.15-.183.265-.137.227-.343.518-.519.825l-.259.451-.121.207-.1.192ZM61.247,100l.206-.4.492-.855c.175-.313.383-.607.524-.836l.242-.378-.486-.327-.248.386c-.144.234-.356.535-.535.855l-.5.875-.211.407Zm.916.48.2-.382.472-.821c.168-.3.368-.583.5-.8l.232-.363-.486-.328-.238.371c-.139.225-.343.514-.515.822l-.484.84-.2.391Zm.916.479.189-.367.453-.787c.161-.289.353-.558.482-.769l.222-.348-.486-.327-.228.357c-.133.216-.329.493-.494.789l-.464.806-.194.376Zm.916.48.181-.351.434-.753c.153-.277.338-.534.461-.736l.212-.333-.486-.327-.218.341c-.127.208-.316.472-.473.755l-.445.772-.186.36Zm.916.479.172-.335.414-.719c.146-.264.323-.509.44-.7l.2-.318-.486-.327-.208.327c-.121.2-.3.451-.452.722l-.425.738-.177.344Zm.916.479.164-.319.394-.684c.139-.252.308-.486.42-.67l.193-.3-.486-.327-.2.312c-.115.189-.289.429-.432.688l-.405.7-.169.328Zm.916.479.156-.3.375-.651c.131-.239.293-.461.4-.636l.183-.288-.486-.328-.188.3c-.109.18-.275.409-.411.655l-.386.67-.161.313Z" transform="translate(-59.848 -96.376)" fill="url(#linear-gradient)"/>
            </g>
            <g id="Group_1519" data-name="Group 1519" transform="translate(9.152)">
              <path id="Path_1453" data-name="Path 1453" d="M76.2,73.617l-9.1-9.25.932-.881c.48-.426.97-.84.97-.84l8.326,9.938-.18.157c-.106.1-.258.214-.4.347Zm-7.347-8.353.4-.375c.1-.1.2-.182.28-.25l.129-.111-.831-.95L68.7,63.7c-.08.07-.19.16-.292.26l-.414.39ZM70.1,66.588l.373-.352c.092-.09.191-.172.264-.235l.122-.1-.831-.949-.127.109c-.076.066-.179.151-.275.245l-.39.368Zm1.248,1.323.35-.33c.085-.084.178-.161.246-.22l.114-.1-.832-.949-.119.1c-.071.062-.168.142-.258.23l-.366.345ZM72.6,69.234l.325-.307c.08-.079.166-.151.23-.2l.106-.091-.832-.948-.112.1c-.067.057-.157.133-.242.215l-.342.323Zm1.249,1.322.3-.285c.074-.073.153-.14.213-.19l.1-.084-.833-.948-.1.089c-.063.053-.147.123-.224.2l-.318.3Zm1.25,1.321.278-.263c.068-.067.14-.13.2-.175l.091-.077-.834-.947-.1.082c-.059.048-.136.114-.208.185l-.294.278Z" transform="translate(-67.104 -62.647)" fill="url(#linear-gradient)"/>
            </g>
            <g id="Group_1520" data-name="Group 1520" transform="translate(0 10.245)">
              <path id="Path_1454" data-name="Path 1454" d="M45.3,111.428l-5.723-1.368-5.729-1.341s-.167-.4-.369-1.006c-.1-.306-.224-.667-.349-1.061s-.231-.814-.345-1.247c-.238-.866-.393-1.744-.523-2.427-.066-.342-.1-.621-.128-.821l-.043-.314,7.188,3.137,7.167,3.183-.2.447-.18.456L45,108.655l-.084.223c-.053.133-.119.312-.172.495l-.16.5c-.045.136-.072.227-.072.227l1.064.32-.141.5-.1.345C45.31,111.363,45.3,111.428,45.3,111.428Zm-2.166-3.986-.189.5-.131.346a1.626,1.626,0,0,0-.056.159l1.212.428s.018-.061.053-.149l.124-.326.177-.475ZM41.3,106.7l-.208.548-.143.377a1.61,1.61,0,0,0-.06.173l1.213.425a1.607,1.607,0,0,1,.057-.164l.136-.357.2-.52Zm-1.832-.742-.225.593-.155.408c-.043.111-.065.187-.065.187l1.213.424a1.655,1.655,0,0,1,.062-.178l.147-.388.213-.564Zm-1.833-.739-.243.638-.167.439c-.044.12-.068.2-.068.2l1.213.421s.022-.078.066-.193l.159-.418.232-.609Zm-2.346.632,1.214.42s.025-.084.07-.207l.171-.449.25-.653L35.8,104.48l-.261.682-.178.47Zm7.279,3.188-.052.16c-.03.1-.076.222-.107.354l-.139.519,1.241.334.13-.49c.028-.123.073-.242.1-.333l.049-.151Zm-1.883-.6-.056.174c-.034.1-.082.243-.116.386l-.152.566,1.241.332.143-.536c.032-.135.079-.266.11-.365l.054-.165Zm-1.884-.6-.061.188c-.038.113-.087.264-.125.417l-.165.612,1.242.33.157-.582c.036-.146.084-.289.119-.4l.058-.179Zm-1.885-.6-.066.2c-.042.121-.092.284-.134.449l-.179.658,1.243.328.17-.628c.04-.158.089-.313.128-.429l.063-.193Zm-1.886-.594-.071.217c-.045.13-.1.3-.142.481l-.192.7,1.243.326.183-.674c.043-.169.094-.336.137-.46l.067-.208Z" transform="translate(-32.089 -101.842)" fill="url(#linear-gradient)"/>
            </g>
            <g id="Group_1521" data-name="Group 1521" transform="translate(9.102 6.605)">
              <path id="Path_1455" data-name="Path 1455" d="M74.258,94.353,70.576,91.5l-3.665-2.878.581-.146c.347-.084.8-.2,1.266-.275s.912-.163,1.253-.209l.571-.067,2.5,2.432,2.511,2.421L75.377,93l-.2.238L74.69,92.8l-.3.328a2.969,2.969,0,0,0-.2.23l-.088.107.52.428Zm-3.646-4.837.239-.265.165-.182a.969.969,0,0,1,.077-.081l-.555-.524s-.034.032-.08.083l-.17.188-.247.273Zm.878.781.228-.253.157-.174c.042-.048.073-.077.073-.077l-.555-.523a.955.955,0,0,0-.076.079l-.162.18-.236.261Zm.879.779L72.8,90.6l-.557-.523s-.03.029-.071.076l-.154.171-.224.248Zm.88.778.412-.455-.557-.522-.427.471Zm.882.777.39-.43-.559-.521-.4.446Zm-4.25-2.262.227-.277c.111-.14.232-.272.232-.272l-.578-.5s-.125.135-.239.28l-.233.285Zm.912.74.216-.264.149-.181.072-.079-.579-.5-.074.081-.154.187-.223.272Zm.913.739.206-.25.141-.172.068-.075-.579-.5-.071.077-.146.178-.212.259Zm.914.738.2-.237.134-.163c.037-.044.064-.072.064-.072l-.58-.5-.067.074-.139.169-.2.246Zm.915.737.185-.224.126-.154a.674.674,0,0,1,.06-.068l-.581-.5s-.027.026-.063.07l-.131.161-.192.232Z" transform="translate(-66.911 -87.919)" fill="url(#linear-gradient)"/>
            </g>
            <g id="Group_1522" data-name="Group 1522" transform="translate(3.321 18.803)">
              <path id="Path_1456" data-name="Path 1456" d="M54.113,140.242l-4.659-.07-4.659-.1.39-.93c.111-.276.266-.593.43-.927s.324-.687.525-1.029l.56-.992.529-.831c.154-.24.28-.437.382-.571l.152-.211,3.393.8,3.4.789-.022.095c-.013.056-.034.132-.044.209l-.053.307-.638-.125-.087.457c-.05.275-.087.646-.143,1.015-.039.371-.062.744-.091,1.023-.012.14-.009.258-.013.339l0,.129.673.029Zm-1.85-2.129-.059.6.761.064.057-.579Zm.138-1.092-.09.6.756.1.087-.574Zm-3.794-1.082.14-.7L48,135.074l-.144.721Zm1.154.219.133-.667-.746-.163-.138.688Zm1.154.217.128-.634-.747-.163-.131.655Zm1.154.215.121-.6-.746-.161-.125.622Zm1.155.214.115-.567-.746-.16-.119.589Zm-5,2.885s.006-.21.015-.526.054-.735.083-1.154c.008-.1.016-.21.025-.313l.04-.3c.026-.2.05-.378.07-.534s.037-.287.049-.378.024-.142.024-.142l-.752-.131-.026.147c-.012.094-.03.228-.051.39l-.072.551c-.013.1-.027.2-.041.311s-.018.215-.026.323c-.03.432-.08.864-.085,1.189l-.016.542Zm1.173.043s.006-.2.015-.5.052-.7.078-1.1c.013-.2.032-.4.061-.585l.067-.509.047-.36a1.1,1.1,0,0,1,.022-.136l-.752-.13s-.012.05-.024.14l-.048.372-.069.525-.039.3c-.008.1-.016.2-.024.308-.027.413-.078.825-.081,1.136l-.015.518Zm1.174.042s.01-.766.088-1.525c.019-.382.09-.757.121-1.041.018-.141.034-.26.044-.342a1.131,1.131,0,0,1,.02-.129l-.752-.129a1.053,1.053,0,0,0-.021.134c-.011.085-.027.207-.046.354-.032.294-.105.681-.125,1.076s-.076.785-.077,1.082-.015.493-.015.493Zm1.174.039s.005-.181.013-.453.047-.632.069-.993.084-.717.114-.987c.017-.134.032-.246.042-.325s.019-.122.018-.122l-.752-.127a1.2,1.2,0,0,0-.02.127c-.01.081-.025.2-.043.336-.031.279-.1.647-.119,1.022-.015.187-.031.374-.045.549-.008.088-.015.172-.022.252s0,.157-.006.227c-.008.281-.014.469-.014.469Zm1.174.038.028-.582-.762-.046-.029.6Z" transform="translate(-44.795 -134.584)" fill="url(#linear-gradient)"/>
            </g>
            <g id="Group_1523" data-name="Group 1523" transform="translate(17.381 4.597)">
              <path id="Path_1457" data-name="Path 1457" d="M101.411,80.234l1.958,3.384-.318.181-.044-.073a.791.791,0,0,0-.078.047l-.2.131c-.165.11-.393.244-.61.395l-.592.422c-.083.055-.146.108-.191.144l-.071.057.052.067-.288.227-2.438-3.057.14-.247c.087-.147.195-.355.319-.545l.5-.779s.113-.033.291-.067l.642-.13c.231-.047.46-.093.637-.114Zm-1.578,1.074a.22.22,0,0,0,.3.088.229.229,0,0,0,.023-.311.219.219,0,0,0-.3-.092A.228.228,0,0,0,99.832,81.308Zm2.639,1.534a.78.78,0,0,0-.081.05l-.212.137c-.174.116-.414.258-.643.417l-.625.444c-.087.058-.154.115-.2.152l-.075.06.356.465.073-.058c.047-.036.111-.092.2-.148l.606-.432c.223-.154.455-.292.624-.4l.206-.134a.789.789,0,0,1,.079-.048Zm-.535-.884a.885.885,0,0,0-.086.052l-.223.144c-.183.121-.435.271-.676.438l-.657.467c-.092.061-.162.12-.212.16l-.079.063.357.465.077-.061c.049-.038.117-.1.206-.156l.638-.454c.234-.162.479-.308.657-.426l.217-.14a.865.865,0,0,1,.084-.051Zm-.534-.885a.959.959,0,0,0-.09.055l-.234.151c-.192.127-.456.285-.708.46l-.688.49c-.1.064-.17.126-.223.167l-.083.066.356.465.081-.064c.052-.04.123-.1.216-.163l.67-.477c.246-.17.5-.323.69-.447l.228-.147a.847.847,0,0,1,.088-.053Z" transform="translate(-98.589 -80.234)" fill="url(#linear-gradient)"/>
            </g>
          </g>
          <g id="Group_1550" data-name="Group 1550" transform="translate(17.637)">
            <g id="Group_1525" data-name="Group 1525" transform="translate(12.353 6.583)">
              <path id="Path_1458" data-name="Path 1458" d="M147.328,58.253l-.5-8.229.306-.129.684-.254.7-.254.32-.1,1.04.371c.514.207,1.013.42,1.013.42l-.712,8.213-.443-.034c-.265-.033-.623-.021-.98-.037l-.266-.008-.258.009-.457.011A4.064,4.064,0,0,0,147.328,58.253Zm.078-6.948.449-.011c.269,0,.628-.026.987-.008l.987.025.448.033.04-.584-.458-.034-1.009-.025c-.367-.018-.734,0-1.009.008l-.458.011Zm.043,1.033.431-.011c.258,0,.6-.025.948-.008l.949.024.43.032.039-.585-.439-.033-.97-.024c-.353-.018-.706,0-.97.008l-.441.011Zm.043,1.032.413-.01c.248,0,.579-.024.91-.007l.91.022.412.031.039-.584-.422-.032-.932-.023c-.339-.017-.678,0-.932.008l-.424.01Zm.043,1.033.4-.009c.238,0,.554-.024.871-.007l.871.021.394.031.039-.585-.4-.031-.893-.021c-.325-.017-.65,0-.893.007l-.406.01Zm.043,1.033.378-.009c.227,0,.53-.024.833-.007l.832.02.376.03.04-.584-.387-.03-.855-.02c-.31-.017-.621,0-.854.007l-.388.009Zm.043,1.033.361-.008c.217,0,.505-.024.794-.007l.794.018.359.028.04-.585-.369-.029-.816-.019c-.3-.017-.593,0-.815.007l-.371.009Zm.043,1.033.343-.008c.206,0,.481-.023.755-.007l.755.017.341.027.04-.585-.351-.028-.777-.018c-.283-.017-.565,0-.777.007l-.353.008Z" transform="translate(-146.828 -49.287)" fill="url(#linear-gradient)"/>
            </g>
            <g id="Group_1526" data-name="Group 1526" transform="translate(5.434)">
              <path id="Path_1459" data-name="Path 1459" d="M123.725,40.343l-1.67-5.643-1.7-5.636s.264-.33.686-.83c.212-.244.468-.52.748-.821s.586-.629.906-.928.646-.613.96-.9.618-.534.881-.756c.528-.437.9-.727.9-.727l.872,7.8.823,7.8-.154.012-.335.045-.489.061-.175-1.124a2.083,2.083,0,0,0-.235.041l-.515.1c-.187.036-.375.069-.513.109l-.231.058.253,1.082-.51.116Zm2.375-3.864-.534.075-.529.1.234,1.264.5-.1.5-.07Zm-.269-1.959-.581.081-.576.112.236,1.263.545-.106.551-.077Zm-.272-1.958-.628.088-.623.119.239,1.263.592-.115.6-.084Zm-.275-1.958-.675.1-.67.128.24,1.262.639-.122.645-.092Zm-1.718-1.718.243,1.262.687-.13.692-.1-.181-1.272s-.362.047-.722.1Zm.867,7.887-1.044.257.33,1.242.983-.244Zm-.417-1.932-1.138.279.332,1.241,1.077-.265Zm-.42-1.932-1.231.3.334,1.24,1.171-.287Zm-.423-1.931-.663.161-.455.111c-.124.03-.206.053-.206.053l.336,1.24,1.264-.31Zm-.426-1.93-.71.171-.488.119c-.133.031-.22.058-.221.058l.338,1.239s.084-.025.211-.055l.466-.113.679-.165Z" transform="translate(-120.358 -24.102)" fill="url(#linear-gradient)"/>
            </g>
            <g id="Group_1527" data-name="Group 1527" transform="translate(16.327 6.417)">
              <path id="Path_1460" data-name="Path 1460" d="M162.032,57.889l.625-4.619c.326-2.308.652-4.616.652-4.616l.418.423c.249.246.567.612.873.962s.6.7.808.982l.345.456L164.9,54.86l-.838,3.386-.3-.071c-.15-.04-.3-.064-.3-.064l.134-.636-.868-.178-.109.665Zm2.355-5.587.35.07.346.087.175-.743-.357-.09-.361-.072Zm-.236,1.151.333.066.33.082.174-.743-.34-.085L164.3,52.7Zm-.234,1.151.317.063c.158.035.313.079.313.079l.173-.744s-.161-.043-.324-.081l-.328-.065Zm-.232,1.151.3.06c.15.032.3.074.3.074l.172-.744s-.153-.043-.308-.077l-.311-.062Zm-.23,1.152.284.057c.071.012.141.033.193.047l.087.023.171-.744-.091-.024c-.055-.013-.126-.036-.2-.048l-.295-.059Zm-.172-4.814.111.016c.066.009.155.022.242.041l.35.071.142-.751-.361-.072c-.09-.02-.181-.034-.25-.043l-.114-.017Zm-.183,1.16.105.016c.063.01.148.019.231.039l.333.068.141-.75-.345-.069c-.086-.02-.173-.031-.238-.041l-.109-.016Zm-.182,1.161s.161.02.32.05l.317.065.139-.75-.328-.067c-.081-.019-.165-.027-.227-.038l-.1-.015Zm-.18,1.161s.152.02.3.047l.3.062.138-.751-.311-.065c-.156-.029-.314-.049-.314-.049Zm-.178,1.161.287.044.284.06.137-.751-.294-.062c-.148-.026-.3-.046-.3-.046Z" transform="translate(-162.032 -48.654)" fill="url(#linear-gradient)"/>
            </g>
            <g id="Group_1528" data-name="Group 1528" transform="translate(0 9.61)">
              <path id="Path_1461" data-name="Path 1461" d="M104.092,69.314l-2.274-4.069-2.25-4.083.275-.041c.173-.028.422-.063.724-.091l1.015-.1c.372-.023.769-.037,1.157-.053s.782,0,1.142,0,.693.011.981.036l.943.068,1,3.344,1.012,3.339-.589.2-.21-.615s-.179.052-.436.158-.612.221-.947.383l-.5.22c-.159.071-.3.151-.427.212l-.417.208.312.6-.081.042-.174.1ZM105,66.652l-.277.117-.191.079a.688.688,0,0,0-.085.039l.324.691a.8.8,0,0,1,.082-.038l.184-.076.267-.112Zm1.013-.424-.565.2.288.707.545-.2Zm-.962-3.841.681-.214-.229-.728-.7.221Zm.387,1.109.649-.2-.231-.728-.67.21Zm.388,1.109.617-.192-.232-.728-.638.2Zm.39,1.109.584-.182-.233-.727-.605.189Zm.391,1.108a.741.741,0,0,1,.086-.029l.19-.058.276-.085-.234-.727-.286.089-.2.061a.919.919,0,0,0-.089.029Zm-5-2.9.126-.071.34-.172c.284-.138.651-.345,1.039-.507s.764-.353,1.062-.458l.489-.191-.262-.717-.5.2c-.307.109-.7.3-1.094.472s-.779.38-1.071.523l-.351.177c-.084.044-.13.072-.13.072Zm.55,1.038.12-.068.324-.163c.271-.13.619-.33.99-.483s.727-.337,1.01-.437l.466-.181-.263-.717-.481.187c-.293.1-.664.286-1.044.451s-.743.364-1.022.5l-.335.169-.124.07ZM102.715,66l.114-.065.308-.155.435-.22.245-.125.26-.115c.35-.149.69-.322.96-.416l.443-.172-.264-.716-.458.178c-.279.1-.631.274-.993.43s-.706.348-.972.475l-.319.16-.118.067Zm.553,1.037.108-.062.292-.148.413-.209.232-.118.246-.109c.332-.14.654-.306.91-.394l.42-.163-.265-.716-.435.169c-.265.091-.6.262-.942.408l-.255.112-.241.123-.427.216-.3.153-.111.064Zm.555,1.035a2.756,2.756,0,0,1,.258-.132l.262-.124L104,67.134l-.271.13c-.138.061-.268.137-.268.137Z" transform="translate(-99.568 -60.868)" fill="url(#linear-gradient)"/>
            </g>
            <g id="Group_1529" data-name="Group 1529" transform="translate(20.988 13.182)">
              <path id="Path_1462" data-name="Path 1462" d="M184.372,76.025l-1.958,3.384-.316-.183.041-.074a3.066,3.066,0,0,0-.29-.156l-.645-.332-.661-.3c-.179-.086-.3-.131-.3-.131l-.032.079-.34-.133,1.431-3.638.285,0c.172,0,.4-.006.63.007l.927.04.635.712c.158.172.305.359.415.5Zm-1.716-.834a.2.2,0,1,0,.35.169.2.2,0,1,0-.35-.169Zm-.017,3.056a3.4,3.4,0,0,0-.306-.165l-.68-.35-.7-.314c-.188-.09-.319-.138-.319-.138l-.225.541s.127.046.309.134l.676.3.66.34a3.341,3.341,0,0,1,.3.16Zm.5-.9s-.124-.078-.322-.173L182.1,76.8l-.733-.331c-.2-.094-.335-.145-.335-.145l-.225.541s.134.049.326.141l.712.321.7.358c.192.093.313.169.313.168Zm.5-.9s-.13-.081-.338-.182l-.75-.386-.769-.347c-.208-.1-.351-.152-.351-.152l-.225.541s.14.052.342.148l.748.338.73.375c.2.1.329.177.329.177Z" transform="translate(-179.868 -74.535)" fill="url(#linear-gradient)"/>
            </g>
            <g id="Group_1549" data-name="Group 1549" transform="translate(19.261 3.492)">
              <g id="Group_1542" data-name="Group 1542" transform="translate(0)">
                <g id="Group_1530" data-name="Group 1530" transform="translate(0.27 0.478)">
                  <rect id="Rectangle_1653" data-name="Rectangle 1653" width="13.083" height="0.26" transform="translate(0 12.21) rotate(-68.943)" fill="url(#linear-gradient-14)"/>
                </g>
                <g id="Group_1538" data-name="Group 1538" transform="translate(4.928)">
                  <g id="Group_1531" data-name="Group 1531" transform="translate(0.163 0.1)">
                    <path id="Path_1463" data-name="Path 1463" d="M192.792,37.845l.192.074.013.067-.258-.1Z" transform="translate(-192.738 -37.845)" fill="url(#linear-gradient-15)"/>
                  </g>
                  <g id="Group_1532" data-name="Group 1532" transform="translate(0.217 0.046)">
                    <rect id="Rectangle_1654" data-name="Rectangle 1654" width="0.058" height="0.206" transform="translate(0 0.054) rotate(-68.943)" fill="url(#linear-gradient-16)"/>
                  </g>
                  <g id="Group_1533" data-name="Group 1533" transform="translate(0.285)">
                    <path id="Path_1464" data-name="Path 1464" d="M193.3,37.563l-.1-.037.078-.065" transform="translate(-193.205 -37.461)" fill="url(#linear-gradient-17)"/>
                  </g>
                  <g id="Group_1534" data-name="Group 1534" transform="translate(0.018 0.464)">
                    <rect id="Rectangle_1655" data-name="Rectangle 1655" width="0.058" height="0.277" transform="translate(0 0.054) rotate(-68.943)" fill="url(#linear-gradient-18)"/>
                  </g>
                  <g id="Group_1535" data-name="Group 1535" transform="translate(0 0.419)">
                    <path id="Path_1465" data-name="Path 1465" d="M192.115,39.064l.357.137-.059.007-.258-.1Z" transform="translate(-192.115 -39.064)" fill="url(#linear-gradient-19)"/>
                  </g>
                  <g id="Group_1536" data-name="Group 1536" transform="translate(0.104 0.142)">
                    <path id="Path_1466" data-name="Path 1466" d="M192.513,38.01l.356.137-.039-.045-.259-.1Z" transform="translate(-192.513 -38.003)" fill="url(#linear-gradient-20)"/>
                  </g>
                  <g id="Group_1537" data-name="Group 1537" transform="translate(0 0.149)">
                    <rect id="Rectangle_1656" data-name="Rectangle 1656" width="0.29" height="0.382" transform="translate(0 0.27) rotate(-68.943)" fill="url(#linear-gradient-21)"/>
                  </g>
                </g>
                <g id="Group_1541" data-name="Group 1541" transform="translate(0 12.57)">
                  <g id="Group_1539" data-name="Group 1539" transform="translate(0 0)">
                    <rect id="Rectangle_1657" data-name="Rectangle 1657" width="0.158" height="0.755" transform="translate(0 0.147) rotate(-68.943)" fill="url(#linear-gradient-22)"/>
                  </g>
                  <g id="Group_1540" data-name="Group 1540" transform="translate(0 0.147)">
                    <line id="Line_138" data-name="Line 138" x1="0.704" y1="0.271" fill="url(#linear-gradient-23)"/>
                  </g>
                </g>
              </g>
              <g id="Group_1548" data-name="Group 1548" transform="translate(3.815 0.698)">
                <g id="Group_1546" data-name="Group 1546" transform="translate(0 0)">
                  <g id="Jordan" transform="translate(0)">
                    <g id="Group_1545" data-name="Group 1545" transform="translate(0)">
                      <g id="Group_1544" data-name="Group 1544">
                        <g id="Group_1543" data-name="Group 1543" clip-path="url(#clip-path)">
                          <rect id="Rectangle_1658" data-name="Rectangle 1658" width="3.489" height="5.981" transform="translate(0 3.256) rotate(-68.943)" fill="url(#linear-gradient-24)"/>
                          <rect id="Rectangle_1659" data-name="Rectangle 1659" width="1.163" height="5.981" transform="translate(0.418 2.171) rotate(-68.943)" fill="#fff"/>
                          <rect id="Rectangle_1660" data-name="Rectangle 1660" width="1.163" height="5.981" transform="translate(0 3.256) rotate(-68.943)" fill="url(#linear-gradient-25)"/>
                          <path id="Path_1467" data-name="Path 1467" d="M189.111,40.133l-1.254,3.256,3.883-.374Z" transform="translate(-187.857 -40.133)" fill="url(#linear-gradient-26)"/>
                          <path id="Path_1468" data-name="Path 1468" d="M193.5,46.954l-.1.108-.116-.091.023.145-.143.034.128.073-.063.133.137-.054.065.132.043-.141.144.032-.084-.121.115-.093-.147-.01Z" transform="translate(-191.775 -45.171)" fill="#fff"/>
                        </g>
                      </g>
                    </g>
                  </g>
                </g>
                <g id="Group_1547" data-name="Group 1547" transform="translate(2.528 0.991)" style="mix-blend-mode: multiply;isolation: isolate">
                  <rect id="Rectangle_1661" data-name="Rectangle 1661" width="3.446" height="3.276" transform="translate(0 3.216) rotate(-68.943)" fill="url(#linear-gradient-27)"/>
                </g>
              </g>
            </g>
          </g>
          <g id="Group_1557" data-name="Group 1557" transform="translate(41.172 10.07)">
            <g id="Group_1551" data-name="Group 1551" transform="translate(6.36 9.404)">
              <path id="Path_1469" data-name="Path 1469" d="M213.941,103.167l6.868-4.559.834.662c.407.343.809.706.809.706l.07.338c.041.2.08.48.124.751s.082.54.114.743.036.341.036.341l-7.47,3.487-.049-.111c-.028-.072-.08-.17-.142-.287l-.207-.4-.115-.229-.133-.228c-.178-.306-.347-.618-.5-.837Zm6.047-3.415.242.377c.142.229.315.543.5.853s.341.631.465.87l.2.4.526-.258-.209-.408c-.127-.244-.285-.575-.475-.89s-.362-.639-.507-.873l-.247-.386Zm-.873.555.233.362c.137.22.3.522.476.819s.327.606.447.835l.2.383.526-.258-.2-.392c-.122-.234-.274-.553-.457-.855s-.348-.614-.487-.839l-.238-.371Zm-.871.555.223.347c.13.21.289.5.455.785s.313.581.428.8l.189.367.526-.258-.193-.376c-.117-.225-.262-.531-.438-.821s-.333-.589-.467-.8l-.228-.356Zm-.873.555.214.332c.125.2.276.479.436.751s.3.556.409.766l.18.351.526-.258-.185-.36c-.112-.215-.251-.508-.42-.785s-.319-.564-.447-.771l-.219-.341Zm-.872.555.2.317c.119.192.263.457.416.717s.286.531.391.731l.172.335.526-.258-.177-.344c-.108-.206-.24-.486-.4-.751s-.305-.539-.428-.736l-.209-.326Zm-.873.555.2.3c.114.183.25.436.4.684s.272.506.372.7l.164.319.526-.258-.169-.328c-.1-.2-.228-.464-.383-.716s-.29-.514-.407-.7l-.2-.311Zm-.872.555.185.287c.108.174.238.415.376.65s.258.481.353.662l.156.3.526-.258s-.064-.125-.161-.312-.216-.442-.364-.681-.276-.49-.387-.669l-.191-.3Z" transform="translate(-213.941 -98.608)" fill="url(#linear-gradient)"/>
            </g>
            <g id="Group_1552" data-name="Group 1552" transform="translate(8.889 16.338)">
              <path id="Path_1470" data-name="Path 1470" d="M223.617,128.386l12.564-3.247s.044.154.1.39l.2.862c.035.157.069.314.1.461s.051.287.072.4c.042.238.07.4.07.4l-12.773,2.221s-.016-.094-.041-.235c-.013-.07-.025-.153-.042-.241s-.043-.179-.065-.272l-.117-.51A1.807,1.807,0,0,0,223.617,128.386Zm10.911-2.178.12.533c.03.134.06.267.082.367s.034.167.034.167l1.238-.243s-.01-.07-.035-.175l-.085-.382-.126-.556Zm-1.77.416s.056.25.113.5l.077.344c.022.094.032.157.032.157l1.238-.243s-.01-.066-.033-.164l-.081-.36-.119-.523Zm-1.771.417s.053.234.105.469c.027.117.053.234.073.322s.031.147.031.147l1.238-.244s-.009-.062-.032-.154-.048-.215-.076-.338l-.111-.491Zm-1.77.418.1.436c.024.109.049.218.067.3s.029.136.029.136l1.238-.245s-.009-.058-.03-.144l-.071-.315-.1-.459Zm-1.77.419.18.808,1.237-.246s-.008-.054-.028-.134l-.066-.293-.1-.426Zm-1.769.42.166.743,1.238-.247-.176-.788Z" transform="translate(-223.617 -125.139)" fill="url(#linear-gradient)"/>
            </g>
            <g id="Group_1553" data-name="Group 1553" transform="translate(3.722 2.239)">
              <path id="Path_1471" data-name="Path 1471" d="M203.85,79.755l4.049-4.269,4.03-4.288.291.045c.184.031.456.068.768.135.626.129,1.495.3,2.34.552.424.122.866.24,1.261.376s.774.265,1.1.381.6.218.779.3l.293.12-6.3,4.666-6.334,4.625-.089-.126c-.055-.074-.12-.179-.2-.275l-.306-.387.885-.715s-.234-.3-.5-.582l-.35-.393c-.1-.105-.167-.171-.167-.171l-.81.762-.363-.38c-.089-.1-.18-.192-.254-.257Zm4.542.125-.339-.419c-.165-.213-.348-.412-.348-.412l-.976.837.107.118c.064.071.14.173.221.271l.321.395Zm1.56-1.215-.369-.457c-.18-.233-.379-.448-.379-.448l-.974.838s.189.2.359.425l.35.432Zm1.557-1.217-.4-.494c-.195-.251-.41-.485-.41-.485l-.973.84s.2.222.39.461l.379.47Zm1.555-1.22-.428-.531c-.209-.269-.441-.52-.441-.52l-.972.841s.221.239.421.5l.408.507Zm.625-2.347-.971.842s.238.257.452.533l.438.545,1.01-.8-.458-.568c-.113-.143-.228-.285-.32-.386Zm-6.4,4.709s-.176-.2-.37-.392l-.378-.385-.91.907.357.362c.183.177.349.37.349.37Zm1.464-1.33-.122-.137c-.074-.081-.179-.184-.281-.289l-.41-.419-.909.909.389.4c.1.1.2.2.266.274l.115.13Zm1.462-1.332-.132-.148-.3-.313-.444-.453-.907.91.422.431c.1.108.213.214.289.3l.125.141Zm1.459-1.334-.142-.159-.327-.336-.476-.487-.906.912.455.465.312.321.135.152Zm1.457-1.336-.152-.17-.349-.36-.509-.521-.9.913.488.5.335.344.145.163Z" transform="translate(-203.85 -71.198)" fill="url(#linear-gradient)"/>
            </g>
            <g id="Group_1554" data-name="Group 1554" transform="translate(8.003 13.497)">
              <path id="Path_1472" data-name="Path 1472" d="M220.229,117.776l4.316-1.767,4.324-1.74-.166.578c-.105.345-.23.79-.391,1.234s-.323.874-.448,1.191c-.06.158-.121.291-.161.383l-.064.144-3.355.948-3.351.963s-.039-.151-.093-.3l-.1-.294.618-.2-.129-.423-.152-.416-.63.237-.106-.271-.072-.187A.731.731,0,0,0,220.229,117.776Zm6.011-.748.215.681.732-.219-.222-.7Zm-1.115.37.2.649.731-.22-.211-.67Zm-1.114.372.193.616.731-.221-.2-.637Zm-1.113.374.183.584.73-.222-.19-.605Zm-1.113.375.172.552.73-.223-.179-.573Zm4.082-2.55.248.67.722-.252-.257-.69Zm-1.1.421.236.638.721-.253-.244-.659Zm-1.1.422.224.606.72-.254-.232-.627Zm-1.1.424.212.575.719-.255-.22-.6Zm-1.094.425.2.544.719-.256-.207-.564Z" transform="translate(-220.229 -114.27)" fill="url(#linear-gradient)"/>
            </g>
            <g id="Group_1555" data-name="Group 1555">
              <path id="Path_1473" data-name="Path 1473" d="M189.61,70.616l2.395-4,2.418-3.986.173.216c.112.133.26.342.437.585s.383.523.591.831l.626.973c.4.677.781,1.338,1.029,1.859l.3.615c.037.073.063.132.081.174l.027.062-2.4,2.534-2.384,2.544-.473-.409.428-.489-.1-.085c-.062-.054-.146-.135-.257-.219l-.374-.3c-.136-.11-.28-.229-.434-.334-.305-.215-.6-.446-.839-.589l-.39-.255-.362.567-.077-.05a1.926,1.926,0,0,0-.172-.1Zm2.763-.538-.481-.363-.437.626.464.35Zm.877.667-.464-.385-.47.6.447.371ZM196.095,68l.53.479.516-.563-.547-.493Zm-.768.889.505.457.515-.563-.521-.472Zm-.766.89.479.435.515-.564-.5-.45Zm-.765.89.454.414.513-.565-.47-.428Zm-.764.892.429.392.512-.566-.445-.406Zm.016-5.78.441.286c.266.171.621.4.958.649l.5.36c.16.116.3.236.425.332l.412.327.491-.586-.425-.336c-.128-.1-.274-.222-.437-.343L194.9,66.1c-.177-.125-.349-.258-.52-.367l-.467-.3-.455-.295Zm-.625.994.421.273c.252.163.592.376.913.618l.478.343c.153.109.286.224.405.316l.393.311.49-.586-.406-.321c-.123-.095-.261-.213-.418-.327l-.493-.354c-.331-.249-.681-.47-.942-.638l-.434-.282Zm-.625,1,.4.259c.24.156.564.356.868.586s.621.442.84.626l.373.3.489-.587-.386-.306c-.117-.09-.247-.2-.4-.31l-.47-.337c-.315-.238-.65-.446-.9-.607l-.413-.268Zm-.623,1s.04.022.105.066l.274.179c.227.149.535.336.824.556s.59.418.8.593l.354.281.488-.587-.367-.291c-.215-.182-.52-.4-.825-.615s-.617-.422-.853-.576l-.285-.185c-.068-.045-.108-.07-.108-.07Zm-.621,1a.789.789,0,0,1,.076.049l.164.113.24.163.422-.636-.25-.169-.171-.117a.9.9,0,0,0-.079-.051Z" transform="translate(-189.61 -62.63)" fill="url(#linear-gradient)"/>
            </g>
            <g id="Group_1556" data-name="Group 1556" transform="translate(9.311 21.054)">
              <path id="Path_1474" data-name="Path 1474" d="M229.353,146.591h-3.91l-.011-.368h.085s0-.133-.008-.332c0-.1,0-.216-.01-.34s-.021-.256-.031-.388c-.024-.264-.03-.53-.064-.725l-.043-.328-.084.011-.044-.363,3.867-.576.448.8c.118.2.215.408.292.564l.128.261-.086.286-.088.29c-.038.106-.079.218-.119.331Zm-.148-1.908a.2.2,0,1,0,.03.389.2.2,0,1,0-.03-.389ZM226.55,146.2s0-.14-.009-.35c0-.1,0-.228-.01-.359s-.022-.27-.033-.408c-.025-.278-.033-.558-.068-.764l-.045-.345-.581.075.044.335c.035.2.042.472.066.742.011.135.022.27.032.4s.006.246.01.348c0,.2.008.34.008.34Zm1.033-.02s0-.147-.009-.367c0-.11,0-.239-.012-.377s-.022-.283-.034-.429c-.025-.292-.035-.587-.071-.8l-.047-.363-.581.075s.018.141.046.353.044.5.069.781c.011.142.023.284.033.418s.007.259.011.366c.006.215.009.358.009.358Zm1.034-.02s0-.154-.009-.385c0-.115,0-.251-.012-.394s-.023-.3-.036-.45c-.026-.306-.037-.614-.075-.842l-.048-.381-.581.075s.019.149.047.371.047.522.073.82c.012.15.023.3.035.439s.007.272.012.384c.006.225.009.375.009.375Z" transform="translate(-225.232 -143.18)" fill="url(#linear-gradient)"/>
            </g>
          </g>
        </g>
      </g>
      <g id="Group_1563" data-name="Group 1563" transform="translate(30.53 41.721)">
        <path id="Path_1475" data-name="Path 1475" d="M123.153,108.445a16.934,16.934,0,1,0-16.934,16.931A16.953,16.953,0,0,0,123.153,108.445Zm-28.195,9.315c.674-.231,1.413-.438,2.19-.63a16.693,16.693,0,0,0,2.455,4.337A14.725,14.725,0,0,1,94.959,117.761Zm3.863-.992q1.556-.294,3.314-.464a24.285,24.285,0,0,0,1.578,6.441A11.047,11.047,0,0,1,98.822,116.769Zm7.819,6.278c-.142,0-.281.02-.421.02s-.282-.016-.422-.02c-.614-.782-1.44-3.082-1.955-6.866.775-.04,1.56-.068,2.376-.068s1.6.029,2.377.068C108.08,119.965,107.254,122.265,106.641,123.047Zm2.086-.3a24.39,24.39,0,0,0,1.579-6.441c1.168.113,2.276.268,3.311.464A11.042,11.042,0,0,1,108.726,122.746Zm4.106-1.279a16.679,16.679,0,0,0,2.461-4.336c.774.192,1.513.4,2.187.631A14.763,14.763,0,0,1,112.832,121.467ZM99.952,95.575A16.688,16.688,0,0,0,97.5,99.912c-.777-.192-1.516-.4-2.19-.63A14.724,14.724,0,0,1,99.952,95.575Zm4.11-1.278a24.283,24.283,0,0,0-1.578,6.441q-1.755-.17-3.314-.464A11.048,11.048,0,0,1,104.063,94.3Zm4.883,6.566c-.775.039-1.56.068-2.377.068s-1.6-.028-2.376-.068c.515-3.784,1.341-6.085,1.955-6.866.14,0,.279-.02.422-.02s.278.016.421.02C107.6,94.778,108.429,97.079,108.946,100.863Zm5.02-.589c-1.035.2-2.143.35-3.311.464a24.393,24.393,0,0,0-1.58-6.441A11.041,11.041,0,0,1,113.965,100.274Zm3.863-.993c-.674.232-1.413.439-2.187.631a16.68,16.68,0,0,0-2.461-4.336A14.763,14.763,0,0,1,117.828,99.281Z" transform="translate(-89.285 -91.512)" fill="url(#linear-gradient)"/>
        <g id="Group_1562" data-name="Group 1562" transform="translate(2.809 13.296)">
          <g id="Group_1560" data-name="Group 1560">
            <path id="Path_1476" data-name="Path 1476" d="M100.031,142.59h1.438c.658,0,1.33.158,1.33.942a.687.687,0,0,1-.446.685v.027a.821.821,0,0,1,.6.806c0,.7-.649.938-1.244.938h-1.681Zm1.258,1.307c.18,0,.383-.018.383-.253,0-.253-.23-.234-.41-.234h-.086v.487Zm-.113,1.28h.14c.2,0,.5,0,.5-.284s-.315-.28-.514-.28h-.122Z" transform="translate(-100.031 -142.536)" fill="#fff"/>
            <path id="Path_1477" data-name="Path 1477" d="M115.834,142.59v2.01c0,.992-.622,1.442-1.573,1.442s-1.573-.451-1.573-1.442v-2.01h1.235v1.893c0,.266.009.5.338.5s.338-.234.338-.5V142.59Z" transform="translate(-109.38 -142.536)" fill="#fff"/>
            <path id="Path_1478" data-name="Path 1478" d="M126.517,144.618l.063.05a1.3,1.3,0,0,0,.771.311c.122,0,.315-.05.315-.2s-.162-.167-.275-.189l-.248-.045a.936.936,0,0,1-.888-.9,1.349,1.349,0,0,1,1.474-1.257,2.023,2.023,0,0,1,1.077.3l-.334.87a1.282,1.282,0,0,0-.717-.257c-.108,0-.266.04-.266.181s.153.144.248.166l.279.063c.523.117.9.4.9.973a1.315,1.315,0,0,1-1.474,1.213,3.061,3.061,0,0,1-1.307-.311Z" transform="translate(-119.314 -142.383)" fill="#fff"/>
            <path id="Path_1479" data-name="Path 1479" d="M138.278,142.59h1.235v3.4h-1.235Z" transform="translate(-128.281 -142.536)" fill="#fff"/>
            <path id="Path_1480" data-name="Path 1480" d="M145.124,142.59h1.185l1.109,1.884h.036a5.106,5.106,0,0,1-.1-.865V142.59h1.181v3.4h-1.181l-1.086-1.785h-.036a3.986,3.986,0,0,1,.077.681v1.1h-1.181Z" transform="translate(-133.338 -142.536)" fill="#fff"/>
            <path id="Path_1481" data-name="Path 1481" d="M160.264,142.59H161.5v3.4h-1.235Z" transform="translate(-144.521 -142.536)" fill="#9e9d9d"/>
            <path id="Path_1482" data-name="Path 1482" d="M169.355,143.816a1.1,1.1,0,0,0-.726-.343.665.665,0,0,0-.671.662.679.679,0,0,0,.689.663.987.987,0,0,0,.708-.315l-.036,1.271a2.736,2.736,0,0,1-.879.135,1.7,1.7,0,0,1-1.727-1.722,1.767,1.767,0,0,1,1.776-1.785,2.576,2.576,0,0,1,.829.14Z" transform="translate(-149.284 -142.383)" fill="#fff"/>
            <path id="Path_1483" data-name="Path 1483" d="M178.525,142.59h1.235v3.4h-1.235Z" transform="translate(-158.009 -142.536)" fill="#fff"/>
            <path id="Path_1484" data-name="Path 1484" d="M184.543,142.59h2.6v1.1l-.68-.032v2.326h-1.235v-2.326l-.681.032Z" transform="translate(-162.454 -142.536)" fill="#fff"/>
            <path id="Path_1485" data-name="Path 1485" d="M195.907,142.59l.379.888h.036c.036-.108.068-.216.113-.32l.243-.568h1.388l-1.163,1.934v1.465H195.7v-1.465l-1.186-1.934Z" transform="translate(-169.816 -142.536)" fill="#fff"/>
          </g>
          <g id="Group_1561" data-name="Group 1561" transform="translate(0.555 5.321)">
            <path id="Path_1486" data-name="Path 1486" d="M103.635,162.939v.287h-.565v1.591h-.349v-1.591h-.567v-.287Z" transform="translate(-102.153 -162.887)" fill="#fff"/>
            <path id="Path_1487" data-name="Path 1487" d="M108.6,164.671v-1.929h.321v.741a.675.675,0,0,1,.171-.119.5.5,0,0,1,.219-.045.483.483,0,0,1,.193.037.387.387,0,0,1,.141.1.461.461,0,0,1,.085.16.678.678,0,0,1,.029.2v.848h-.321v-.848a.285.285,0,0,0-.057-.189.209.209,0,0,0-.169-.067.336.336,0,0,0-.156.038.554.554,0,0,0-.137.1v.963Z" transform="translate(-106.916 -162.741)" fill="#fff"/>
            <path id="Path_1488" data-name="Path 1488" d="M114.547,164.947a.644.644,0,0,1,.232.04.505.505,0,0,1,.183.117.54.54,0,0,1,.119.189.719.719,0,0,1,.043.257.5.5,0,0,1,0,.06.1.1,0,0,1-.011.038.047.047,0,0,1-.023.019.094.094,0,0,1-.037.006h-.823a.46.46,0,0,0,.111.3.344.344,0,0,0,.254.1.437.437,0,0,0,.135-.018.639.639,0,0,0,.1-.04l.074-.04a.123.123,0,0,1,.062-.018.07.07,0,0,1,.034.008.073.073,0,0,1,.025.022l.094.117a.539.539,0,0,1-.119.1.694.694,0,0,1-.138.067.78.78,0,0,1-.147.036,1.081,1.081,0,0,1-.145.011.71.71,0,0,1-.258-.046.572.572,0,0,1-.208-.136.64.64,0,0,1-.139-.223.867.867,0,0,1-.051-.309.739.739,0,0,1,.044-.256.612.612,0,0,1,.127-.209.6.6,0,0,1,.2-.141A.669.669,0,0,1,114.547,164.947Zm.007.23a.3.3,0,0,0-.22.079.391.391,0,0,0-.1.224h.6a.4.4,0,0,0-.017-.117.266.266,0,0,0-.052-.1.244.244,0,0,0-.088-.066A.3.3,0,0,0,114.554,165.177Z" transform="translate(-110.835 -164.37)" fill="#fff"/>
            <path id="Path_1489" data-name="Path 1489" d="M123.215,163.878a1.014,1.014,0,0,1-.069.379.85.85,0,0,1-.494.491,1.056,1.056,0,0,1-.388.069h-.717v-1.878h.717a1.049,1.049,0,0,1,.388.069.883.883,0,0,1,.3.194.87.87,0,0,1,.193.3A1.013,1.013,0,0,1,123.215,163.878Zm-.357,0a.863.863,0,0,0-.042-.277.594.594,0,0,0-.118-.208.51.51,0,0,0-.186-.13.644.644,0,0,0-.247-.045H121.9v1.322h.365a.641.641,0,0,0,.247-.045.508.508,0,0,0,.186-.13.592.592,0,0,0,.118-.208A.867.867,0,0,0,122.858,163.878Z" transform="translate(-116.479 -162.887)" fill="#fff"/>
            <path id="Path_1490" data-name="Path 1490" d="M129.762,166.288h-.144a.156.156,0,0,1-.071-.013.087.087,0,0,1-.039-.055l-.029-.095a1.071,1.071,0,0,1-.1.08.613.613,0,0,1-.1.058.521.521,0,0,1-.11.035.661.661,0,0,1-.13.012.5.5,0,0,1-.156-.023.331.331,0,0,1-.123-.068.31.31,0,0,1-.08-.113.405.405,0,0,1-.029-.158.313.313,0,0,1,.04-.149.37.37,0,0,1,.132-.133.836.836,0,0,1,.245-.1,1.577,1.577,0,0,1,.381-.039v-.079a.3.3,0,0,0-.057-.2.207.207,0,0,0-.164-.065.4.4,0,0,0-.13.018.487.487,0,0,0-.09.041l-.07.041a.146.146,0,0,1-.072.018.093.093,0,0,1-.056-.017.13.13,0,0,1-.038-.042l-.059-.1a.793.793,0,0,1,.555-.21.537.537,0,0,1,.208.038.438.438,0,0,1,.252.27.627.627,0,0,1,.033.208Zm-.623-.2a.453.453,0,0,0,.091-.009.354.354,0,0,0,.079-.027.432.432,0,0,0,.071-.044.63.63,0,0,0,.07-.062v-.223a1.3,1.3,0,0,0-.234.018.633.633,0,0,0-.151.045.2.2,0,0,0-.081.064.162.162,0,0,0,.026.2A.216.216,0,0,0,129.139,166.088Z" transform="translate(-121.726 -164.359)" fill="#fff"/>
            <path id="Path_1491" data-name="Path 1491" d="M134.2,165.227a.349.349,0,0,1-.266-.1.376.376,0,0,1-.093-.271v-.744h-.135a.062.062,0,0,1-.064-.068v-.127l.214-.035.067-.363a.066.066,0,0,1,.025-.04.077.077,0,0,1,.047-.014h.166v.42h.351v.228h-.351v.722a.142.142,0,0,0,.031.1.106.106,0,0,0,.083.035.155.155,0,0,0,.05-.007l.035-.015.026-.015a.045.045,0,0,1,.023-.007.036.036,0,0,1,.023.007.1.1,0,0,1,.019.021l.1.156a.484.484,0,0,1-.161.088A.6.6,0,0,1,134.2,165.227Z" transform="translate(-125.414 -163.277)" fill="#fff"/>
            <path id="Path_1492" data-name="Path 1492" d="M138.809,166.288h-.144a.158.158,0,0,1-.072-.013.088.088,0,0,1-.039-.055l-.028-.095a1.066,1.066,0,0,1-.1.08.612.612,0,0,1-.1.058.525.525,0,0,1-.11.035.665.665,0,0,1-.13.012.5.5,0,0,1-.156-.023.335.335,0,0,1-.123-.068.311.311,0,0,1-.08-.113.408.408,0,0,1-.028-.158.313.313,0,0,1,.04-.149.373.373,0,0,1,.132-.133.836.836,0,0,1,.245-.1,1.577,1.577,0,0,1,.381-.039v-.079a.3.3,0,0,0-.056-.2.207.207,0,0,0-.164-.065.4.4,0,0,0-.13.018.5.5,0,0,0-.09.041l-.071.041a.145.145,0,0,1-.071.018.093.093,0,0,1-.056-.017.137.137,0,0,1-.037-.042l-.058-.1a.793.793,0,0,1,.555-.21.536.536,0,0,1,.208.038.451.451,0,0,1,.155.106.456.456,0,0,1,.1.163.618.618,0,0,1,.033.208Zm-.623-.2a.453.453,0,0,0,.091-.009.358.358,0,0,0,.079-.027.43.43,0,0,0,.071-.044.656.656,0,0,0,.07-.062v-.223a1.3,1.3,0,0,0-.234.018.633.633,0,0,0-.151.045.2.2,0,0,0-.081.064.145.145,0,0,0-.024.08.142.142,0,0,0,.05.121A.215.215,0,0,0,138.186,166.088Z" transform="translate(-128.408 -164.359)" fill="#fff"/>
            <path id="Path_1493" data-name="Path 1493" d="M143.169,164.671v-1.929h.321v.761a.634.634,0,0,1,.179-.134.515.515,0,0,1,.234-.05.432.432,0,0,1,.355.175.629.629,0,0,1,.1.212,1.075,1.075,0,0,1,.036.29.909.909,0,0,1-.04.277.68.68,0,0,1-.115.221.536.536,0,0,1-.181.146.521.521,0,0,1-.237.053.484.484,0,0,1-.112-.012.4.4,0,0,1-.092-.035.388.388,0,0,1-.077-.054.643.643,0,0,1-.068-.071l-.014.09a.082.082,0,0,1-.027.048.083.083,0,0,1-.051.014Zm.624-1.1a.328.328,0,0,0-.171.042.5.5,0,0,0-.132.119v.6a.3.3,0,0,0,.119.094.357.357,0,0,0,.14.027.305.305,0,0,0,.131-.028.254.254,0,0,0,.1-.083.413.413,0,0,0,.063-.141.81.81,0,0,0,.022-.2.893.893,0,0,0-.019-.2.381.381,0,0,0-.054-.132.211.211,0,0,0-.085-.074A.263.263,0,0,0,143.793,163.567Z" transform="translate(-132.448 -162.741)" fill="#fff"/>
            <path id="Path_1494" data-name="Path 1494" d="M149.675,166.288h-.144a.157.157,0,0,1-.072-.013.089.089,0,0,1-.039-.055l-.029-.095a1.084,1.084,0,0,1-.1.08.613.613,0,0,1-.1.058.525.525,0,0,1-.11.035.664.664,0,0,1-.13.012.5.5,0,0,1-.156-.023.334.334,0,0,1-.123-.068.307.307,0,0,1-.08-.113.405.405,0,0,1-.028-.158.314.314,0,0,1,.039-.149.373.373,0,0,1,.132-.133.832.832,0,0,1,.246-.1,1.575,1.575,0,0,1,.38-.039v-.079a.3.3,0,0,0-.056-.2.207.207,0,0,0-.164-.065.4.4,0,0,0-.13.018.476.476,0,0,0-.09.041l-.071.041a.145.145,0,0,1-.071.018.092.092,0,0,1-.056-.017.135.135,0,0,1-.038-.042l-.058-.1a.793.793,0,0,1,.555-.21.537.537,0,0,1,.209.038.449.449,0,0,1,.155.106.454.454,0,0,1,.1.163.622.622,0,0,1,.033.208Zm-.623-.2a.451.451,0,0,0,.091-.009.354.354,0,0,0,.079-.027.451.451,0,0,0,.072-.044.669.669,0,0,0,.069-.062v-.223a1.3,1.3,0,0,0-.234.018.626.626,0,0,0-.151.045.194.194,0,0,0-.081.064.161.161,0,0,0,.026.2A.216.216,0,0,0,149.052,166.088Z" transform="translate(-136.434 -164.359)" fill="#fff"/>
            <path id="Path_1495" data-name="Path 1495" d="M154.48,165.227a.082.082,0,0,1-.027.029.069.069,0,0,1-.037.009.114.114,0,0,1-.05-.013l-.062-.029a.613.613,0,0,0-.08-.029.386.386,0,0,0-.106-.013.249.249,0,0,0-.149.04.126.126,0,0,0-.054.105.1.1,0,0,0,.028.072.252.252,0,0,0,.074.051.75.75,0,0,0,.1.04l.119.038c.041.014.08.03.119.047a.41.41,0,0,1,.1.068.3.3,0,0,1,.1.235.446.446,0,0,1-.035.178.389.389,0,0,1-.1.14.476.476,0,0,1-.167.092.726.726,0,0,1-.228.033.705.705,0,0,1-.134-.013.784.784,0,0,1-.126-.034.727.727,0,0,1-.111-.052.565.565,0,0,1-.09-.065l.074-.122a.108.108,0,0,1,.034-.034.1.1,0,0,1,.049-.012.1.1,0,0,1,.057.017l.061.036a.593.593,0,0,0,.083.036.356.356,0,0,0,.12.017.309.309,0,0,0,.1-.013.208.208,0,0,0,.067-.036.134.134,0,0,0,.039-.051.157.157,0,0,0,.012-.06.108.108,0,0,0-.028-.077.249.249,0,0,0-.074-.052.723.723,0,0,0-.105-.039l-.121-.039a1.129,1.129,0,0,1-.121-.049.408.408,0,0,1-.105-.071.316.316,0,0,1-.074-.105.369.369,0,0,1-.028-.151.38.38,0,0,1,.033-.156.363.363,0,0,1,.1-.129.478.478,0,0,1,.157-.088.65.65,0,0,1,.217-.033.668.668,0,0,1,.251.045.568.568,0,0,1,.188.12Z" transform="translate(-140.132 -164.37)" fill="#fff"/>
            <path id="Path_1496" data-name="Path 1496" d="M158.659,164.947a.645.645,0,0,1,.232.04.5.5,0,0,1,.183.117.538.538,0,0,1,.119.189.716.716,0,0,1,.043.257.443.443,0,0,1,0,.06.1.1,0,0,1-.012.038.046.046,0,0,1-.023.019.094.094,0,0,1-.036.006h-.823a.458.458,0,0,0,.11.3.345.345,0,0,0,.255.1.435.435,0,0,0,.134-.018.638.638,0,0,0,.1-.04l.074-.04a.122.122,0,0,1,.062-.018.068.068,0,0,1,.034.008.074.074,0,0,1,.025.022l.094.117a.543.543,0,0,1-.119.1.7.7,0,0,1-.138.067.785.785,0,0,1-.147.036,1.089,1.089,0,0,1-.145.011.711.711,0,0,1-.259-.046.573.573,0,0,1-.207-.136.645.645,0,0,1-.139-.223.867.867,0,0,1-.05-.309.728.728,0,0,1,.044-.256.613.613,0,0,1,.126-.209.6.6,0,0,1,.2-.141A.669.669,0,0,1,158.659,164.947Zm.007.23a.3.3,0,0,0-.22.079.391.391,0,0,0-.1.224h.6a.4.4,0,0,0-.017-.117.266.266,0,0,0-.052-.1.247.247,0,0,0-.088-.066A.3.3,0,0,0,158.666,165.177Z" transform="translate(-143.417 -164.37)" fill="#fff"/>
            <path id="Path_1497" data-name="Path 1497" d="M165.9,164.947a.733.733,0,0,1,.271.048.592.592,0,0,1,.207.136.6.6,0,0,1,.132.216.892.892,0,0,1,0,.57.618.618,0,0,1-.132.217.576.576,0,0,1-.207.138.786.786,0,0,1-.542,0,.582.582,0,0,1-.208-.138.618.618,0,0,1-.134-.217.876.876,0,0,1,0-.57.581.581,0,0,1,.342-.352A.737.737,0,0,1,165.9,164.947Zm0,1.126a.282.282,0,0,0,.246-.112.56.56,0,0,0,.08-.328.566.566,0,0,0-.08-.328.28.28,0,0,0-.246-.113.284.284,0,0,0-.249.114.564.564,0,0,0-.081.328.558.558,0,0,0,.081.327A.286.286,0,0,0,165.9,166.073Z" transform="translate(-148.748 -164.37)" fill="#fff"/>
            <path id="Path_1498" data-name="Path 1498" d="M170.9,164.725v-1.091l-.116-.018a.123.123,0,0,1-.061-.026.068.068,0,0,1-.023-.055V163.4h.2v-.1a.576.576,0,0,1,.034-.205.415.415,0,0,1,.255-.252.6.6,0,0,1,.208-.034.572.572,0,0,1,.172.025l-.007.161a.048.048,0,0,1-.035.047.293.293,0,0,1-.075.009.4.4,0,0,0-.1.012.172.172,0,0,0-.076.043.192.192,0,0,0-.048.08.411.411,0,0,0-.016.124v.088h.347v.228h-.336v1.092Z" transform="translate(-152.782 -162.796)" fill="#fff"/>
            <path id="Path_1499" data-name="Path 1499" d="M177.068,164.149a.976.976,0,0,1-.039.286.592.592,0,0,1-.117.217.506.506,0,0,1-.193.138.7.7,0,0,1-.269.048,1.1,1.1,0,0,1-.138-.009,1.186,1.186,0,0,1-.141-.027l.018-.208a.071.071,0,0,1,.021-.046.079.079,0,0,1,.055-.017.264.264,0,0,1,.058.009.367.367,0,0,0,.09.009.373.373,0,0,0,.131-.022.224.224,0,0,0,.1-.068.321.321,0,0,0,.058-.121.736.736,0,0,0,.019-.181v-1.218h.35Z" transform="translate(-156.825 -162.887)" fill="#fff"/>
            <path id="Path_1500" data-name="Path 1500" d="M181.289,164.947a.731.731,0,0,1,.271.048.577.577,0,0,1,.339.352.889.889,0,0,1,0,.57.615.615,0,0,1-.132.217.578.578,0,0,1-.207.138.786.786,0,0,1-.542,0,.579.579,0,0,1-.208-.138.625.625,0,0,1-.134-.217.883.883,0,0,1,0-.57.608.608,0,0,1,.134-.216.594.594,0,0,1,.208-.136A.736.736,0,0,1,181.289,164.947Zm0,1.126a.283.283,0,0,0,.246-.112.56.56,0,0,0,.08-.328.566.566,0,0,0-.08-.328.281.281,0,0,0-.246-.113.284.284,0,0,0-.249.114.563.563,0,0,0-.081.328.557.557,0,0,0,.081.327A.286.286,0,0,0,181.289,166.073Z" transform="translate(-160.117 -164.37)" fill="#fff"/>
            <path id="Path_1501" data-name="Path 1501" d="M186.63,166.288v-1.332h.188a.1.1,0,0,1,.069.018.107.107,0,0,1,.026.062l.019.161A.631.631,0,0,1,187.1,165a.353.353,0,0,1,.216-.072.28.28,0,0,1,.164.045l-.042.24a.049.049,0,0,1-.017.033.056.056,0,0,1-.035.01.215.215,0,0,1-.053-.009.363.363,0,0,0-.089-.009.271.271,0,0,0-.172.055.422.422,0,0,0-.121.161v.83Z" transform="translate(-164.55 -164.359)" fill="#fff"/>
            <path id="Path_1502" data-name="Path 1502" d="M191.365,164.671a.079.079,0,0,1-.082-.059l-.026-.128a.885.885,0,0,1-.087.085.575.575,0,0,1-.1.065.5.5,0,0,1-.113.042.558.558,0,0,1-.131.015.44.44,0,0,1-.2-.045.449.449,0,0,1-.157-.132.634.634,0,0,1-.1-.214,1.086,1.086,0,0,1-.036-.291.914.914,0,0,1,.04-.275.67.67,0,0,1,.116-.221.539.539,0,0,1,.18-.146.523.523,0,0,1,.236-.053.466.466,0,0,1,.191.036.505.505,0,0,1,.142.1v-.7h.321v1.929Zm-.427-.235a.328.328,0,0,0,.17-.042.51.51,0,0,0,.132-.118v-.6a.318.318,0,0,0-.119-.093.347.347,0,0,0-.138-.027.309.309,0,0,0-.132.027.257.257,0,0,0-.1.082.4.4,0,0,0-.063.14.8.8,0,0,0-.022.2.889.889,0,0,0,.019.2.386.386,0,0,0,.054.132.2.2,0,0,0,.085.074A.274.274,0,0,0,190.938,164.435Z" transform="translate(-167.287 -162.741)" fill="#fff"/>
            <path id="Path_1503" data-name="Path 1503" d="M197.208,166.288h-.144a.157.157,0,0,1-.072-.013.088.088,0,0,1-.039-.055l-.028-.095a1.071,1.071,0,0,1-.1.08.621.621,0,0,1-.1.058.522.522,0,0,1-.11.035.665.665,0,0,1-.13.012.5.5,0,0,1-.156-.023.338.338,0,0,1-.123-.068.31.31,0,0,1-.08-.113.405.405,0,0,1-.029-.158.311.311,0,0,1,.04-.149.373.373,0,0,1,.132-.133.832.832,0,0,1,.245-.1,1.579,1.579,0,0,1,.381-.039v-.079a.3.3,0,0,0-.057-.2.206.206,0,0,0-.164-.065.4.4,0,0,0-.13.018.5.5,0,0,0-.09.041l-.071.041a.146.146,0,0,1-.071.018.094.094,0,0,1-.056-.017.135.135,0,0,1-.037-.042l-.058-.1a.793.793,0,0,1,.554-.21.533.533,0,0,1,.208.038.448.448,0,0,1,.155.106.46.46,0,0,1,.1.163.627.627,0,0,1,.033.208Zm-.623-.2a.456.456,0,0,0,.091-.009.36.36,0,0,0,.079-.027.438.438,0,0,0,.071-.044.659.659,0,0,0,.07-.062v-.223a1.3,1.3,0,0,0-.235.018.638.638,0,0,0-.151.045.2.2,0,0,0-.081.064.162.162,0,0,0,.026.2A.215.215,0,0,0,196.585,166.088Z" transform="translate(-171.543 -164.359)" fill="#fff"/>
            <path id="Path_1504" data-name="Path 1504" d="M201.553,166.3v-1.332h.2a.079.079,0,0,1,.082.058l.022.105a.751.751,0,0,1,.085-.075.606.606,0,0,1,.095-.059.5.5,0,0,1,.107-.038.569.569,0,0,1,.125-.013.479.479,0,0,1,.194.037.379.379,0,0,1,.141.1.46.46,0,0,1,.086.16.687.687,0,0,1,.029.2v.848h-.321v-.848a.284.284,0,0,0-.057-.189.209.209,0,0,0-.169-.067.334.334,0,0,0-.156.038.555.555,0,0,0-.138.1v.963Z" transform="translate(-175.572 -164.37)" fill="#fff"/>
          </g>
        </g>
      </g>
      <path id="Path_1505" data-name="Path 1505" d="M71.756,162.383s.925,17.985,20.1,19.382l.006.344-.349-.013s-16.989.367-20.19-19.683Z" transform="translate(-45.487 -102.138)" fill="#fff"/>
      <path id="Path_1506" data-name="Path 1506" d="M176.033,162.383s-.925,17.985-20.1,19.382l-.006.344.349-.013s16.989.367,20.19-19.683Z" transform="translate(-107.981 -102.138)" fill="#fff"/>
    </g>
  </g>
</svg>
