<svg xmlns="http://www.w3.org/2000/svg" xmlns:xlink="http://www.w3.org/1999/xlink" width="53.333" height="87.922" viewBox="0 0 53.333 87.922">
  <defs>
    <filter id="Path_23984" x="0" y="0" width="53.333" height="111.19px" filterUnits="userSpaceOnUse">
      <feOffset dy="3" input="SourceAlpha"/>
      <feGaussianBlur stdDeviation="3" result="blur"/>
      <feFlood flood-opacity="0.161"/>
      <feComposite operator="in" in2="blur"/>
      <feComposite in="SourceGraphic"/>
    </filter>
    <filter id="ic_arrow_back_24px" x="15.454" y="23.922" width="30.002" height="38.194" filterUnits="userSpaceOnUse">
      <feOffset dy="3" input="SourceAlpha"/>
      <feGaussianBlur stdDeviation="3" result="blur-2"/>
      <feFlood flood-color="#fff" flood-opacity="0.161"/>
      <feComposite operator="in" in2="blur-2"/>
      <feComposite in="SourceGraphic"/>
    </filter>
  </defs>
  <g id="Group_11278" data-name="Group 11278" transform="translate(-1166.667 -928.289)">
    <g id="Group_714" data-name="Group 714" transform="translate(1177 948.434)">
      <g id="Ellipse_56" data-name="Ellipse 56" fill="none" stroke="#097b87" stroke-width="0.5">
        <ellipse cx="17" cy="18" rx="17" ry="18" stroke="none"/>
        <ellipse cx="17" cy="18" rx="16.75" ry="17.75" fill="none"/>
      </g>
      <g id="Group_711" data-name="Group 711" transform="translate(10.341 21.391) rotate(-90)">
        <path id="Path_912" data-name="Path 912" d="M0,0,3.55,4.222C3.55,4.413,6.912,0,6.912,0" transform="translate(0 8.174)" fill="none" stroke="#097b87" stroke-width="0.8"/>
        <path id="Path_913" data-name="Path 913" d="M0,0V12.2" transform="translate(3.604 0)" fill="none" stroke="#097b87" stroke-width="0.8"/>
      </g>
    </g>
    <g transform="matrix(1, 0, 0, 1, 1166.67, 928.29)" filter="url(#Path_23984)">
      <path id="Path_23984-2" data-name="Path 23984" d="M.138,0a35.384,35.384,0,0,1,35.2,35.043c0,19.191-16.123,34.879-35.314,34.879C-.08,62.85.237,54.43.156,37.048.074,19.685.021,20.441.138,0Z" transform="translate(44.33 75.92) rotate(180)" fill="#097b87"/>
    </g>
    <g transform="matrix(1, 0, 0, 1, 1166.67, 928.29)" filter="url(#ic_arrow_back_24px)">
      <path id="ic_arrow_back_24px-2" data-name="ic_arrow_back_24px" d="M4.88,8.835,12,1.78,10.193,0,0,10.1l10.193,10.1,1.8-1.78L3.681,10.1Z" transform="translate(36.46 50.12) rotate(-180)" fill="#fff"/>
    </g>
  </g>
</svg>
